<svg width="16" height="16" viewBox="0 0 16 16" fill="none" xmlns="http://www.w3.org/2000/svg">
<path d="M5.5 9H2.5C2.36739 9 2.24021 8.94732 2.14645 8.85355C2.05268 8.75979 2 8.63261 2 8.5V5H12.5C12.6326 5 12.7598 4.94732 12.8536 4.85355C12.9473 4.75979 13 4.63261 13 4.5V2.5C13 2.10218 12.842 1.72064 12.5607 1.43934C12.2794 1.15804 11.8978 1 11.5 1H2.5C2.10218 1 1.72064 1.15804 1.43934 1.43934C1.15804 1.72064 1 2.10218 1 2.5V8.5C1 8.89782 1.15804 9.27936 1.43934 9.56066C1.72064 9.84196 2.10218 10 2.5 10H5.5C5.63261 10 5.75979 9.94732 5.85355 9.85355C5.94732 9.75979 6 9.63261 6 9.5C6 9.36739 5.94732 9.24021 5.85355 9.14645C5.75979 9.05268 5.63261 9 5.5 9ZM2 2.5C2 2.36739 2.05268 2.24021 2.14645 2.14645C2.24021 2.05268 2.36739 2 2.5 2H11.5C11.6326 2 11.7598 2.05268 11.8536 2.14645C11.9473 2.24021 12 2.36739 12 2.5V3H2V2.5Z" fill="#757575"/>
<path d="M14.5 6H7.5C7.36739 6 7.24022 6.05268 7.14645 6.14645C7.05268 6.24022 7 6.36739 7 6.5V11.5C6.99931 12.1853 7.19983 12.8558 7.5767 13.4282C7.95356 14.0006 8.49019 14.4498 9.12 14.72L10.8 15.44C10.8634 15.4664 10.9313 15.48 11 15.48C11.0687 15.48 11.1366 15.4664 11.2 15.44L12.88 14.72C13.5067 14.4511 14.0412 14.005 14.4178 13.4366C14.7944 12.8681 14.9968 12.2019 15 11.52V6.52C15.0027 6.45268 14.9918 6.3855 14.9678 6.32251C14.9439 6.25952 14.9075 6.20201 14.8608 6.15345C14.8141 6.10488 14.7581 6.06625 14.6961 6.03988C14.6341 6.01351 14.5674 5.99995 14.5 6ZM14 11.52C14.0013 12.0105 13.8578 12.4904 13.5874 12.8996C13.3169 13.3087 12.9317 13.6289 12.48 13.82L11 14.46L9.52 13.82C9.06829 13.6289 8.68306 13.3087 8.41265 12.8996C8.14223 12.4904 7.99868 12.0105 8 11.52V7H14V11.52Z" fill="#757575"/>
<path d="M10.1501 11.85C10.195 11.8978 10.2492 11.9359 10.3094 11.962C10.3696 11.9881 10.4345 12.0015 10.5001 12.0015C10.5657 12.0015 10.6306 11.9881 10.6908 11.962C10.751 11.9359 10.8052 11.8978 10.8501 11.85L12.8501 9.84998C12.9429 9.75715 12.9951 9.63126 12.9951 9.49998C12.9951 9.3687 12.9429 9.24281 12.8501 9.14998C12.7573 9.05715 12.6314 9.005 12.5001 9.005C12.3688 9.005 12.2429 9.05715 12.1501 9.14998L10.5001 10.79L9.8501 10.15C9.75728 10.0572 9.63138 10.005 9.5001 10.005C9.36883 10.005 9.24293 10.0572 9.1501 10.15C9.05728 10.2428 9.00513 10.3687 9.00513 10.5C9.00513 10.6313 9.05728 10.7572 9.1501 10.85L10.1501 11.85Z" fill="#757575"/>
</svg>
