<svg width="16" height="16" viewBox="0 0 16 16" fill="none" xmlns="http://www.w3.org/2000/svg">
<g clip-path="url(#clip0)">
<path d="M7.5 1C6.01664 1 4.5666 1.43987 3.33323 2.26398C2.09986 3.08809 1.13856 4.25943 0.570907 5.62987C0.00324965 7.00032 -0.145275 8.50832 0.144114 9.96318C0.433503 11.418 1.14781 12.7544 2.1967 13.8033C3.2456 14.8522 4.58197 15.5665 6.03683 15.8559C7.49168 16.1453 8.99968 15.9968 10.3701 15.4291C11.7406 14.8614 12.9119 13.9001 13.736 12.6668C14.5601 11.4334 15 9.98336 15 8.5C15 6.51088 14.2098 4.60322 12.8033 3.1967C11.3968 1.79018 9.48913 1 7.5 1V1ZM7.5 15C6.21442 15 4.95772 14.6188 3.8888 13.9046C2.81988 13.1903 1.98676 12.1752 1.49479 10.9874C1.00282 9.79972 0.874095 8.49279 1.1249 7.23191C1.3757 5.97104 1.99477 4.81285 2.90381 3.90381C3.81285 2.99476 4.97104 2.3757 6.23192 2.1249C7.49279 1.87409 8.79973 2.00281 9.98745 2.49478C11.1752 2.98675 12.1903 3.81987 12.9046 4.88879C13.6188 5.95771 14 7.21442 14 8.5C13.9974 10.2231 13.3117 11.8749 12.0933 13.0933C10.8749 14.3117 9.2231 14.9974 7.5 15V15Z" fill="#E5605C"/>
<path d="M7.5 4C7.36739 4 7.24021 4.05268 7.14645 4.14645C7.05268 4.24021 7 4.36739 7 4.5V10.5C7 10.6326 7.05268 10.7598 7.14645 10.8536C7.24021 10.9473 7.36739 11 7.5 11C7.63261 11 7.75979 10.9473 7.85355 10.8536C7.94732 10.7598 8 10.6326 8 10.5V4.5C8 4.36739 7.94732 4.24021 7.85355 4.14645C7.75979 4.05268 7.63261 4 7.5 4Z" fill="#E5605C"/>
<path d="M7.84992 12.15C7.78605 12.0728 7.70004 12.017 7.60348 11.9902C7.50693 11.9633 7.40447 11.9668 7.30992 12C7.1895 12.0533 7.09325 12.1496 7.03992 12.27C7.02576 12.3325 7.02576 12.3974 7.03992 12.46C7.03912 12.5256 7.05206 12.5906 7.07789 12.6509C7.10372 12.7111 7.14189 12.7653 7.18992 12.81C7.23217 12.8606 7.28752 12.8987 7.34992 12.92C7.41238 12.9349 7.47746 12.9349 7.53992 12.92C7.67173 12.9174 7.79742 12.8639 7.89064 12.7707C7.98386 12.6775 8.03736 12.5518 8.03992 12.42C8.0548 12.3575 8.0548 12.2925 8.03992 12.23C7.98574 12.1854 7.9197 12.1576 7.84992 12.15V12.15Z" fill="#E5605C"/>
</g>
<defs>
<clipPath id="clip0">
<rect width="16" height="16" fill="white"/>
</clipPath>
</defs>
</svg>
