<svg width="16" height="16" viewBox="0 0 16 16" fill="none" xmlns="http://www.w3.org/2000/svg">
<path d="M12.5 2H12V1.5C12 1.36739 11.9473 1.24021 11.8536 1.14645C11.7598 1.05268 11.6326 1 11.5 1C11.3674 1 11.2402 1.05268 11.1464 1.14645C11.0527 1.24021 11 1.36739 11 1.5V2.5C11 2.63261 11.0527 2.75979 11.1464 2.85355C11.2402 2.94732 11.3674 3 11.5 3H12.5C12.8978 3 13.2794 3.15804 13.5607 3.43934C13.842 3.72064 14 4.10218 14 4.5V5H2V4.5C2 4.10218 2.15804 3.72064 2.43934 3.43934C2.72064 3.15804 3.10218 3 3.5 3C3.63261 3 3.75979 2.94732 3.85355 2.85355C3.94732 2.75979 4 2.63261 4 2.5C4 2.36739 3.94732 2.24021 3.85355 2.14645C3.75979 2.05268 3.63261 2 3.5 2C2.83696 2 2.20107 2.26339 1.73223 2.73223C1.26339 3.20107 1 3.83696 1 4.5V12.5C1 13.163 1.26339 13.7989 1.73223 14.2678C2.20107 14.7366 2.83696 15 3.5 15H12.5C13.163 15 13.7989 14.7366 14.2678 14.2678C14.7366 13.7989 15 13.163 15 12.5V4.5C15 3.83696 14.7366 3.20107 14.2678 2.73223C13.7989 2.26339 13.163 2 12.5 2V2ZM12.5 14H3.5C3.10218 14 2.72064 13.842 2.43934 13.5607C2.15804 13.2794 2 12.8978 2 12.5V6H14V12.5C14 12.8978 13.842 13.2794 13.5607 13.5607C13.2794 13.842 12.8978 14 12.5 14V14Z" fill="#757575"/>
<path d="M5.5 3H9.5C9.63261 3 9.75979 2.94732 9.85355 2.85355C9.94732 2.75979 10 2.63261 10 2.5C10 2.36739 9.94732 2.24021 9.85355 2.14645C9.75979 2.05268 9.63261 2 9.5 2H6V1.5C6 1.36739 5.94732 1.24021 5.85355 1.14645C5.75979 1.05268 5.63261 1 5.5 1C5.36739 1 5.24021 1.05268 5.14645 1.14645C5.05268 1.24021 5 1.36739 5 1.5V2.5C5 2.63261 5.05268 2.75979 5.14645 2.85355C5.24021 2.94732 5.36739 3 5.5 3Z" fill="#757575"/>
<path d="M5.5 8H4.5C4.36739 8 4.24021 8.05268 4.14645 8.14645C4.05268 8.24021 4 8.36739 4 8.5C4 8.63261 4.05268 8.75979 4.14645 8.85355C4.24021 8.94732 4.36739 9 4.5 9H5.5C5.63261 9 5.75979 8.94732 5.85355 8.85355C5.94732 8.75979 6 8.63261 6 8.5C6 8.36739 5.94732 8.24021 5.85355 8.14645C5.75979 8.05268 5.63261 8 5.5 8Z" fill="#757575"/>
<path d="M8.5 8H7.5C7.36739 8 7.24021 8.05268 7.14645 8.14645C7.05268 8.24021 7 8.36739 7 8.5C7 8.63261 7.05268 8.75979 7.14645 8.85355C7.24021 8.94732 7.36739 9 7.5 9H8.5C8.63261 9 8.75979 8.94732 8.85355 8.85355C8.94732 8.75979 9 8.63261 9 8.5C9 8.36739 8.94732 8.24021 8.85355 8.14645C8.75979 8.05268 8.63261 8 8.5 8Z" fill="#757575"/>
<path d="M11.5 8H10.5C10.3674 8 10.2402 8.05268 10.1464 8.14645C10.0527 8.24021 10 8.36739 10 8.5C10 8.63261 10.0527 8.75979 10.1464 8.85355C10.2402 8.94732 10.3674 9 10.5 9H11.5C11.6326 9 11.7598 8.94732 11.8536 8.85355C11.9473 8.75979 12 8.63261 12 8.5C12 8.36739 11.9473 8.24021 11.8536 8.14645C11.7598 8.05268 11.6326 8 11.5 8Z" fill="#757575"/>
<path d="M5.5 11H4.5C4.36739 11 4.24021 11.0527 4.14645 11.1464C4.05268 11.2402 4 11.3674 4 11.5C4 11.6326 4.05268 11.7598 4.14645 11.8536C4.24021 11.9473 4.36739 12 4.5 12H5.5C5.63261 12 5.75979 11.9473 5.85355 11.8536C5.94732 11.7598 6 11.6326 6 11.5C6 11.3674 5.94732 11.2402 5.85355 11.1464C5.75979 11.0527 5.63261 11 5.5 11Z" fill="#757575"/>
<path d="M8.5 11H7.5C7.36739 11 7.24021 11.0527 7.14645 11.1464C7.05268 11.2402 7 11.3674 7 11.5C7 11.6326 7.05268 11.7598 7.14645 11.8536C7.24021 11.9473 7.36739 12 7.5 12H8.5C8.63261 12 8.75979 11.9473 8.85355 11.8536C8.94732 11.7598 9 11.6326 9 11.5C9 11.3674 8.94732 11.2402 8.85355 11.1464C8.75979 11.0527 8.63261 11 8.5 11Z" fill="#757575"/>
<path d="M11.5 11H10.5C10.3674 11 10.2402 11.0527 10.1464 11.1464C10.0527 11.2402 10 11.3674 10 11.5C10 11.6326 10.0527 11.7598 10.1464 11.8536C10.2402 11.9473 10.3674 12 10.5 12H11.5C11.6326 12 11.7598 11.9473 11.8536 11.8536C11.9473 11.7598 12 11.6326 12 11.5C12 11.3674 11.9473 11.2402 11.8536 11.1464C11.7598 11.0527 11.6326 11 11.5 11Z" fill="#757575"/>
</svg>
